<?xml version="1.0" encoding="UTF-8" standalone="no"?>
<!DOCTYPE svg PUBLIC "-//W3C//DTD SVG 1.1//EN"
 "http://www.w3.org/Graphics/SVG/1.1/DTD/svg11.dtd">
<!-- Generated by graphviz version 2.38.0 (20140413.2041)
 -->
<!-- Title: G Pages: 1 -->
<svg width="392pt" height="304pt"
 viewBox="0.00 0.00 391.89 304.00" xmlns="http://www.w3.org/2000/svg" xmlns:xlink="http://www.w3.org/1999/xlink">
<g id="graph0" class="graph" transform="scale(1 1) rotate(0) translate(4 300)">
<title>G</title>
<polygon fill="white" stroke="none" points="-4,4 -4,-300 387.888,-300 387.888,4 -4,4"/>
<g id="clust1" class="cluster"><title>cluster_Global</title>
<path fill="none" stroke="gray" d="M185.888,-8C185.888,-8 363.888,-8 363.888,-8 369.888,-8 375.888,-14 375.888,-20 375.888,-20 375.888,-276 375.888,-276 375.888,-282 369.888,-288 363.888,-288 363.888,-288 185.888,-288 185.888,-288 179.888,-288 173.888,-282 173.888,-276 173.888,-276 173.888,-20 173.888,-20 173.888,-14 179.888,-8 185.888,-8"/>
<text text-anchor="middle" x="274.888" y="-275.2" font-family="Times,serif" font-size="11.00" fill="gray">Global</text>
</g>
<g id="clust2" class="cluster"><title>cluster_\Teknoo</title>
<path fill="none" stroke="gray" d="M193.888,-16C193.888,-16 355.888,-16 355.888,-16 361.888,-16 367.888,-22 367.888,-28 367.888,-28 367.888,-248 367.888,-248 367.888,-254 361.888,-260 355.888,-260 355.888,-260 193.888,-260 193.888,-260 187.888,-260 181.888,-254 181.888,-248 181.888,-248 181.888,-28 181.888,-28 181.888,-22 187.888,-16 193.888,-16"/>
<text text-anchor="middle" x="274.888" y="-247.2" font-family="Times,serif" font-size="11.00" fill="gray">Teknoo</text>
</g>
<g id="clust3" class="cluster"><title>cluster_\Teknoo\Immutable</title>
<path fill="none" stroke="gray" d="M201.888,-24C201.888,-24 347.888,-24 347.888,-24 353.888,-24 359.888,-30 359.888,-36 359.888,-36 359.888,-220 359.888,-220 359.888,-226 353.888,-232 347.888,-232 347.888,-232 201.888,-232 201.888,-232 195.888,-232 189.888,-226 189.888,-220 189.888,-220 189.888,-36 189.888,-36 189.888,-30 195.888,-24 201.888,-24"/>
<text text-anchor="middle" x="274.888" y="-219.2" font-family="Times,serif" font-size="11.00" fill="gray">Immutable</text>
</g>
<g id="clust4" class="cluster"><title>cluster_\Teknoo\Immutable\Exception</title>
<path fill="none" stroke="gray" d="M209.888,-132C209.888,-132 339.888,-132 339.888,-132 345.888,-132 351.888,-138 351.888,-144 351.888,-144 351.888,-192 351.888,-192 351.888,-198 345.888,-204 339.888,-204 339.888,-204 209.888,-204 209.888,-204 203.888,-204 197.888,-198 197.888,-192 197.888,-192 197.888,-144 197.888,-144 197.888,-138 203.888,-132 209.888,-132"/>
<text text-anchor="middle" x="274.888" y="-191.2" font-family="Times,serif" font-size="11.00" fill="gray">Exception</text>
</g>
<!-- \\Teknoo\\Immutable\\Exception\\ImmutableException -->
<g id="node1" class="node"><title>\\Teknoo\\Immutable\\Exception\\ImmutableException</title>
<polygon fill="none" stroke="black" points="343.888,-176 205.888,-176 205.888,-140 343.888,-140 343.888,-176"/>
<text text-anchor="middle" x="274.888" y="-155.2" font-family="Courier,monospace" font-size="11.00">ImmutableException</text>
</g>
<!-- \\LogicException -->
<g id="node4" class="node"><title>\\LogicException</title>
<ellipse fill="none" stroke="black" cx="66.9441" cy="-158" rx="66.8882" ry="18"/>
<text text-anchor="middle" x="66.9441" y="-154.3" font-family="Times,serif" font-size="14.00" fill="gray">LogicException</text>
</g>
<!-- \\Teknoo\\Immutable\\Exception\\ImmutableException&#45;&gt;\\LogicException -->
<g id="edge1" class="edge"><title>\\Teknoo\\Immutable\\Exception\\ImmutableException&#45;&gt;\\LogicException</title>
<path fill="none" stroke="black" d="M205.884,-158C186.139,-158 164.447,-158 144.23,-158"/>
<polygon fill="none" stroke="black" points="144.125,-154.5 134.125,-158 144.125,-161.5 144.125,-154.5"/>
</g>
<!-- \\Teknoo\\Immutable\\ImmutableInterface -->
<g id="node2" class="node"><title>\\Teknoo\\Immutable\\ImmutableInterface</title>
<polygon fill="none" stroke="black" points="343.888,-122 205.888,-122 205.888,-86 343.888,-86 343.888,-122"/>
<text text-anchor="middle" x="274.888" y="-101.2" font-family="Courier,monospace" font-size="11.00">ImmutableInterface</text>
</g>
<!-- \\Teknoo\\Immutable\\ImmutableTrait -->
<g id="node3" class="node"><title>\\Teknoo\\Immutable\\ImmutableTrait</title>
<polygon fill="none" stroke="black" points="330.388,-68 219.388,-68 219.388,-32 330.388,-32 330.388,-68"/>
<text text-anchor="middle" x="274.888" y="-47.2" font-family="Courier,monospace" font-size="11.00">ImmutableTrait</text>
</g>
</g>
</svg>
